<svg aria-hidden="true" style="position: absolute; width: 0; height: 0; overflow: hidden;" version="1.1" xmlns="http://www.w3.org/2000/svg" xmlns:xlink="http://www.w3.org/1999/xlink">
<defs>
<symbol id="icon-josefine" viewBox="0 0 32 32">
<path fill="#5dddd3" style="fill: var(--color1, #5dddd3)" d="M16 32c8.812 0 16-7.187 16-16s-7.187-16-16-16-16 7.187-16 16c0 8.812 7.187 16 16 16z"></path>
<path fill="#666" style="fill: var(--color2, #666)" d="M10.657 18.875c-1.334-3.366-4.137-6.412-0.61-12.549 1.453-2.527 3.671-4.194 5.963-3.63 2.292-0.564 4.511 1.103 5.963 3.63 3.527 6.136 0.724 9.183-0.61 12.549l-5.353 0.013-5.353-0.013z"></path>
<path fill="#fed198" style="fill: var(--color3, #fed198)" d="M6.994 24.137c-0.167 0.27-0.585 2.568-1.047 4.31 2.747 2.221 6.244 3.553 10.052 3.553s7.305-1.331 10.052-3.553c-0.462-1.742-0.88-4.040-1.047-4.31-2.57-4.15-6.532-2.339-6.803-7.088 0 0-1.275 0.951-2.248 0.96s-2.159-0.9-2.159-0.9c-0.27 4.745-4.233 2.881-6.801 7.028z"></path>
<path fill="#f0b97d" style="fill: var(--color4, #f0b97d)" d="M18.272 17.72c-0.032-0.208-0.055-0.431-0.069-0.671 0 0-1.275 0.951-2.248 0.96s-2.159-0.9-2.159-0.9c-0.014 0.244-0.038 0.47-0.071 0.681 0.025 0.020 0.050 0.040 0.075 0.059l-0 0.003c0.075 0.065 1.214 1.045 2.155 1.035 0.941 0.010 2.080-0.97 2.155-1.035l-0-0.003c0.055-0.042 0.109-0.086 0.162-0.13l0-0z"></path>
<path fill="#fed198" style="fill: var(--color3, #fed198)" d="M13.8 17.112c0.075 0.057 1.214 0.905 2.155 0.897 0.941 0.009 2.080-0.84 2.155-0.897 1.422-0.829 2.589-3.274 2.326-5.924-0.216-2.17-2.564 1.012-4.199-3.466-2.314 4.848-4.513 1.98-4.763 3.818-0.276 2.024 0.86 4.572 2.326 5.572v-0z"></path>
<path fill="#fbb429" style="fill: var(--color5, #fbb429)" d="M11.932 20.507c-1.401 0.748-3.963 0.771-4.938 2.338-0.17 0.273-0.596 3.617-1.065 5.587 2.75 2.23 6.254 3.567 10.070 3.567s7.32-1.337 10.070-3.567c-0.469-1.97-0.946-5.288-1.065-5.587-0.647-1.633-3.644-1.701-5.046-2.454-2.18 7.909-5.429 8.448-8.027 0.116l-0.001-0.001h0z"></path>
<path fill="#fff" style="fill: var(--color6, #fff)" d="M12.866 19.721c-0.091 2.461 0.327 5.947 3.088 6.838-2.599 0.109-4.286-3.637-6.208-4.618l3.119-2.22z"></path>
<path fill="#fff" style="fill: var(--color6, #fff)" d="M19.198 19.721c0.095 2.461-0.344 5.947-3.243 6.838 2.73 0.109 4.501-3.637 6.518-4.618l-3.275-2.22z"></path>
</symbol>
<symbol id="icon-peter" viewBox="0 0 32 32">
<path fill="#fd8469" style="fill: var(--color7, #fd8469)" d="M32 16c0 8.837-7.163 16-16 16s-16-7.163-16-16c0-8.837 7.163-16 16-16s16 7.163 16 16z"></path>
<path fill="#84dbff" style="fill: var(--color8, #84dbff)" d="M16.076 22.854c-0.025 0-0.050 0.025-0.076 0.025s-0.050-0.025-0.076-0.025h0.151z"></path>
<path fill="#84dbff" style="fill: var(--color8, #84dbff)" d="M28.422 26.079c-2.923 3.603-7.408 5.921-12.422 5.921s-9.499-2.318-12.422-5.921c2.091-2.797 5.291-4.183 7.912-4.863-0.202 1.663 0.655 3.88 0.68 3.83 0.882-2.016 3.83-2.192 3.83-2.192s2.948 0.176 3.805 2.192c0.025 0.050 0.907-2.167 0.68-3.83 2.646 0.68 5.871 2.066 7.937 4.863z"></path>
<path fill="#fff" style="fill: var(--color6, #fff)" d="M19.603 19.654c0 0 0 0 0 0.025 0 0.252-0.126 1.865-3.528 3.15h-0.151c-3.402-1.285-3.528-2.898-3.528-3.15 0-0.025 0-0.025 0-0.025 0-0.328 0.076-0.655 0.151-0.983 0.983 1.235 2.167 2.066 3.452 2.066s2.469-0.831 3.452-2.066c0.076 0.328 0.151 0.655 0.151 0.983z"></path>
<path fill="#54c0eb" style="fill: var(--color9, #54c0eb)" d="M19.603 19.654c0 0 0.176 1.814-3.603 3.225 0 0 2.948 0.176 3.805 2.192 0.050 0.050 1.739-4.334-0.202-5.417z"></path>
<path fill="#54c0eb" style="fill: var(--color9, #54c0eb)" d="M12.397 19.654c-1.94 1.083-0.252 5.468-0.202 5.392 0.882-2.016 3.805-2.192 3.805-2.192-3.78-1.386-3.603-3.2-3.603-3.2z"></path>
<path fill="#fff" style="fill: var(--color6, #fff)" d="M21.291 13.279c-0.227 1.562-0.907 3.024-2.041 4.132-0.227 0.227-0.428 0.403-0.68 0.58l-0.403-1.285h-4.334l-0.403 1.285c-0.806-0.605-2.495-2.293-2.52-3.88-0.706-9.046 6.224-7.131 6.224-7.131 4.661-0.328 4.51 3.78 4.157 6.299z"></path>
<path fill="#fff" style="fill: var(--color6, #fff)" d="M22.224 14.917c-0.353 0.58-0.831 0.983-1.285 1.134 0.176-0.403 0.328-0.832 0.454-1.26 0 0 0 0 0-0.025 0.101-0.378 0.202-0.756 0.302-1.134h-0.025c0.101-0.378 0.202-0.756 0.277-1.134 0.101 0 0.202 0.050 0.302 0.101 0.554 0.353 0.529 1.386-0.025 2.318z"></path>
<path fill="#fff" style="fill: var(--color6, #fff)" d="M11.061 16.050c-0.454-0.151-0.932-0.554-1.285-1.134-0.58-0.932-0.58-1.965-0.025-2.293 0.050-0.025 0.076-0.050 0.126-0.050 0.302 1.184 0.655 2.066 0.731 2.243 0.126 0.403 0.277 0.832 0.454 1.235z"></path>
<path fill="#324a5e" style="fill: var(--color10, #324a5e)" d="M18.746 4.46c0.202-2.318-3.477-2.167-3.477-2.167-5.569 0.806-6.173 5.997-6.173 5.997l0.756-0.907c-1.184 2.595 0.605 7.055 0.756 7.408 0.932 3.099 2.998 5.946 5.392 5.946s4.46-2.847 5.392-5.946v0c0 0 0 0 0-0.025 0.101-0.378 0.202-0.756 0.277-1.134h-0.025c0.504-2.016 1.058-4.057 1.058-4.057 1.436-7.231-3.956-5.115-3.956-5.115zM21.291 13.279c-0.227 1.562-0.907 3.024-2.041 4.132-0.227 0.227-0.454 0.403-0.68 0.58l-0.403-1.26h-4.334l-0.403 1.285c-0.806-0.605-1.487-1.436-2.041-2.394-0.252-0.504-0.403-1.033-0.479-1.487-0.706-9.046 6.224-7.131 6.224-7.131 4.661-0.353 4.51 3.754 4.157 6.274z"></path>
<path fill="#324a5e" style="fill: var(--color10, #324a5e)" d="M18.746 4.46c0.202-2.318-3.477-2.167-3.477-2.167-5.569 0.806-6.173 5.997-6.173 5.997l0.756-0.907c-1.184 2.595 0.605 7.055 0.756 7.408 0.932 3.099 2.998 5.946 5.392 5.946s4.46-2.847 5.392-5.946v0c0 0 0 0 0-0.025 0.101-0.378 0.202-0.756 0.277-1.134h-0.025c0.504-2.016 1.058-4.057 1.058-4.057 1.436-7.231-3.956-5.115-3.956-5.115zM21.291 13.279c-0.227 1.562-0.907 3.024-2.041 4.132-0.227 0.227-0.454 0.403-0.68 0.58l-0.403-1.26h-4.334l-0.403 1.285c-0.806-0.605-2.495-2.293-2.52-3.88-0.706-9.046 6.224-7.131 6.224-7.131 4.661-0.353 4.51 3.754 4.157 6.274z"></path>
<path fill="#fff" style="fill: var(--color6, #fff)" d="M14.236 17.587c0.428 0.479 1.058 0.806 1.764 0.806s1.335-0.302 1.764-0.806h-3.528z"></path>
</symbol>
<symbol id="icon-alise" viewBox="0 0 32 32">
<path fill="#64505a" style="fill: var(--color11, #64505a)" d="M29.376 21.376c0.043-2.968-0.946-3.484-1.441-5.226-0.498-1.754 0.009-2.951-0.581-4.892-0.548-1.806-1.545-2.112-1.849-4.677-0.516-4.344-5.204-6.581-7.527-6.581-0.657 0-1.105 0.167-1.407 0.366-0.349 0.231-0.795 0.231-1.144 0-0.302-0.199-0.75-0.366-1.407-0.366-2.323 0-7.011 2.236-7.527 6.581-0.305 2.566-1.301 2.871-1.849 4.677-0.589 1.941-0.083 3.139-0.581 4.892-0.495 1.742-1.484 2.258-1.441 5.226 0.050 3.442-1.935 4.215-1.161 6.495 0.578 1.701 3.699 3.097 3.699 3.097h21.677c0 0 3.121-1.396 3.699-3.097 0.774-2.28-1.211-3.053-1.161-6.495z"></path>
<path fill="#5a4650" style="fill: var(--color12, #5a4650)" d="M16 0.539c-0.199 0-0.397-0.058-0.572-0.173-0.302-0.199-0.75-0.366-1.407-0.366-2.323 0-7.011 2.236-7.527 6.581-0.305 2.566-1.301 2.871-1.849 4.677-0.589 1.941-0.083 3.139-0.581 4.892-0.495 1.742-1.484 2.258-1.441 5.226 0.050 3.442-1.935 4.215-1.161 6.495 0.578 1.701 3.699 3.097 3.699 3.097h10.839v-30.428z"></path>
<path fill="#b67f5f" style="fill: var(--color13, #b67f5f)" d="M25.805 25.077l-5.331-1.881c-0.825-0.291-1.377-1.072-1.377-1.947v-2.668h-6.194v2.668c0 0.875-0.552 1.655-1.377 1.947l-5.331 1.881c-1.238 0.437-2.066 1.607-2.066 2.92v2.454c0 0.855 0.693 1.548 1.548 1.548h20.645c0.855 0 1.548-0.693 1.548-1.548v-2.454c0-1.313-0.828-2.483-2.066-2.92z"></path>
<path fill="#b4e6a0" style="fill: var(--color14, #b4e6a0)" d="M25.805 25.077l-3.557-1.255c-1.4 1.935-3.305 4.069-5.523 5.251-0.452 0.241-0.998 0.241-1.451 0-2.218-1.182-4.123-3.316-5.523-5.251l-3.557 1.255c-1.238 0.437-2.066 1.607-2.066 2.92v2.454c0 0.855 0.693 1.548 1.548 1.548h20.645c0.855 0 1.548-0.693 1.548-1.548v-2.454c-0-1.313-0.828-2.483-2.066-2.92z"></path>
<path fill="#a06e50" style="fill: var(--color15, #a06e50)" d="M12.903 19.985c0.953 0.421 2 0.66 3.097 0.66s2.144-0.239 3.097-0.66v-1.404h-6.194l0 1.404z"></path>
<path fill="#cd916e" style="fill: var(--color16, #cd916e)" d="M16 19.613v0c-3.706 0-6.71-3.004-6.71-6.71v-8.774h13.419v8.774c0 3.706-3.004 6.71-6.71 6.71z"></path>
<path fill="#b67f5f" style="fill: var(--color13, #b67f5f)" d="M9.29 4.129v8.774c0 3.706 3.004 6.71 6.71 6.71 0.352 0 0.695-0.035 1.032-0.087-3.214-0.498-5.677-3.268-5.677-6.622v-2.684c0-0.424 0.132-0.834 0.356-1.194 0.001-0.002 0.002-0.004 0.004-0.006 0.847-1.36 1.641-1.56 2.559-1.791 0.527-0.133 1.142-0.288 1.726-0.677 0.584 0.389 1.199 0.544 1.726 0.677 0.919 0.231 1.712 0.431 2.559 1.791 0.788 1.265 1.671 1.964 2.424 2.504v-7.394h-13.419z"></path>
<path fill="#a06e50" style="fill: var(--color15, #a06e50)" d="M16 16.516c-0.775 0-1.489-0.248-1.911-0.665-0.203-0.201-0.205-0.527-0.005-0.73 0.201-0.203 0.528-0.205 0.73-0.005 0.172 0.169 0.585 0.367 1.186 0.367s1.014-0.198 1.186-0.367c0.202-0.2 0.529-0.198 0.73 0.005s0.198 0.529-0.005 0.73c-0.422 0.416-1.136 0.665-1.911 0.665z"></path>
<path fill="#5a4650" style="fill: var(--color12, #5a4650)" d="M12.903 12.903c-0.285 0-0.516-0.231-0.516-0.516v-0.516c0-0.285 0.231-0.516 0.516-0.516s0.516 0.231 0.516 0.516v0.516c0 0.285-0.231 0.516-0.516 0.516z"></path>
<path fill="#5a4650" style="fill: var(--color12, #5a4650)" d="M19.097 12.903c-0.285 0-0.516-0.231-0.516-0.516v-0.516c0-0.285 0.231-0.516 0.516-0.516s0.516 0.231 0.516 0.516v0.516c0 0.285-0.231 0.516-0.516 0.516z"></path>
<path fill="#5a4650" style="fill: var(--color12, #5a4650)" d="M13.419 10.839h-1.032c-0.285 0-0.516-0.231-0.516-0.516s0.231-0.516 0.516-0.516h1.032c0.285 0 0.516 0.231 0.516 0.516s-0.231 0.516-0.516 0.516z"></path>
<path fill="#5a4650" style="fill: var(--color12, #5a4650)" d="M19.613 10.839h-1.032c-0.285 0-0.516-0.231-0.516-0.516s0.231-0.516 0.516-0.516h1.032c0.285 0 0.516 0.231 0.516 0.516s-0.231 0.516-0.516 0.516z"></path>
<path fill="#9bdc9b" style="fill: var(--color17, #9bdc9b)" d="M7.908 27.889l-2.635-2.288c-0.27 0.22-0.497 0.484-0.678 0.778l2.636 2.289c0.339 0.294 0.533 0.721 0.533 1.169v2.163h1.032v-2.163c0-0.748-0.324-1.458-0.889-1.949z"></path>
<path fill="#9bdc9b" style="fill: var(--color17, #9bdc9b)" d="M24.115 27.889l2.634-2.288c0.27 0.22 0.497 0.484 0.678 0.778l-2.636 2.289c-0.339 0.294-0.533 0.721-0.533 1.169v2.163h-1.032v-2.163c-0-0.748 0.324-1.458 0.889-1.949z"></path>
<path fill="#6e5a64" style="fill: var(--color18, #6e5a64)" d="M27.936 16.151c-0.498-1.754 0.009-2.951-0.581-4.892-0.548-1.806-1.545-2.112-1.849-4.677-0.516-4.344-5.204-6.581-7.527-6.581-0.657 0-1.105 0.167-1.407 0.366-0.174 0.115-0.373 0.173-0.572 0.173v4.622c1.333 1.677 3.312 0.344 5.161 3.312 1.572 2.523 3.546 2.459 4.24 4.447 0.199 0.57 0.091 1.179 0.139 1.781 0.266 3.363 2.847 4.911 4.007 8.421-0.111-0.501-0.181-1.071-0.171-1.746 0.043-2.968-0.946-3.484-1.441-5.226z"></path>
<path fill="#64505a" style="fill: var(--color11, #64505a)" d="M4.064 16.151c0.498-1.754-0.009-2.951 0.581-4.892 0.548-1.806 1.545-2.112 1.849-4.677 0.516-4.344 5.204-6.581 7.527-6.581 0.657 0 1.105 0.167 1.407 0.366 0.174 0.115 0.373 0.173 0.572 0.173v4.622c-1.333 1.677-3.312 0.344-5.161 3.312-1.572 2.523-3.546 2.459-4.24 4.447-0.199 0.57-0.091 1.179-0.139 1.781-0.266 3.363-2.847 4.911-4.007 8.421 0.111-0.501 0.181-1.071 0.171-1.746-0.043-2.968 0.946-3.484 1.441-5.226z"></path>
</symbol>
<symbol id="icon-maks" viewBox="0 0 32 32">
<path fill="#fbe280" style="fill: var(--color19, #fbe280)" d="M32 16c0 4.39-1.769 8.367-4.631 11.258-1.61 1.626-21.128 1.626-22.738 0-2.862-2.891-4.631-6.868-4.631-11.258 0-8.836 7.164-16 16-16s16 7.164 16 16z"></path>
<path fill="#efc859" style="fill: var(--color20, #efc859)" d="M31.992 15.486l-8.548-8.548-5.67 0.034-7.649 6.575 14.483 14.483c1.433-0.194 2.444-0.451 2.761-0.771 2.863-2.891 4.631-6.868 4.631-11.258 0-0.172-0.003-0.343-0.008-0.514z"></path>
<path fill="#eaa678" style="fill: var(--color21, #eaa678)" d="M12.498 15.639h7.004v7.428h-7.004z"></path>
<path fill="#d38c5b" style="fill: var(--color22, #d38c5b)" d="M16 15.64h3.502v7.428h-3.502z"></path>
<path fill="#ffc397" style="fill: var(--color23, #ffc397)" d="M12.498 20.628h7.004v7.427h-7.004z"></path>
<path fill="#eaa678" style="fill: var(--color21, #eaa678)" d="M16 20.628h3.502v7.427h-3.502z"></path>
<path fill="#ffc397" style="fill: var(--color23, #ffc397)" d="M21.516 9.514c-0.233-3.537-3.094-4.845-5.516-4.845s-5.283 1.307-5.516 4.845c-0.626 0.121-1.071 0.942-1.001 1.606l0.107 1.511c0.073 0.697 0.686 1.206 1.362 1.131l0.117-0.013c1.384 3.715 3.554 4.103 4.931 4.32 1.377-0.218 3.547-0.605 4.931-4.32l0.116 0.013c0.675 0.076 1.288-0.433 1.362-1.131l0.107-1.511c0.070-0.664-0.375-1.485-1.001-1.606z"></path>
<path fill="#eaa678" style="fill: var(--color21, #eaa678)" d="M22.517 11.12l-0.107 1.511c-0.073 0.697-0.686 1.206-1.362 1.131l-0.116-0.013c-0.473 1.268-1.037 2.149-1.63 2.767-1.143 1.193-2.394 1.41-3.301 1.553v-13.4c2.421 0 5.283 1.307 5.516 4.845 0.626 0.121 1.071 0.942 1.001 1.606z"></path>
<path fill="#af5e22" style="fill: var(--color24, #af5e22)" d="M23.443 6.938s-2.83-3.401-6.058-4.163c-1.461-0.345-3.337 0.098-4.589 1.42-1.65 0.144-3.592 1.467-2.479 6.589l1.294 1.442 0.661-3.345c1.461 0.405 4.423 0.976 7.437 0.086l0.644 3.259 1.294-1.442c0.231-1.091 0.296-1.995 0.241-2.745 0.531-0.304 1.052-0.668 1.555-1.101z"></path>
<path fill="#89491d" style="fill: var(--color25, #89491d)" d="M21.888 8.039c0.055 0.749-0.010 1.652-0.241 2.744l-1.294 1.442-0.644-3.259c-1.283 0.379-2.557 0.492-3.709 0.467v-6.754c0.481-0.039 0.951-0.006 1.386 0.096 3.227 0.762 6.058 4.163 6.058 4.163-0.503 0.434-1.024 0.797-1.555 1.101z"></path>
<path fill="#fff" style="fill: var(--color6, #fff)" d="M21.62 30.984c-0.685 0.258-1.393 0.469-2.118 0.631-1.127 0.253-2.299 0.385-3.502 0.385s-2.375-0.133-3.502-0.385c-0.726-0.162-1.433-0.373-2.118-0.631l2.118-10.356c0.808 1.296 2.155 1.943 3.502 1.943s2.694-0.648 3.502-1.943z"></path>
<path fill="#cecece" style="fill: var(--color26, #cecece)" d="M21.62 30.984c-0.685 0.258-1.393 0.469-2.118 0.631-1.127 0.253-2.299 0.385-3.502 0.385v-9.429c1.347 0 2.694-0.648 3.502-1.943z"></path>
<path fill="#336b90" style="fill: var(--color27, #336b90)" d="M12.498 20.628v10.987c-3.039-0.678-5.752-2.221-7.867-4.357v-3.856c0-1.532 1.242-2.774 2.774-2.774z"></path>
<path fill="#205077" style="fill: var(--color28, #205077)" d="M27.369 23.402v3.856c-2.115 2.136-4.828 3.679-7.867 4.357v-10.987h5.093c1.532 0 2.774 1.242 2.774 2.774z"></path>
<path fill="#205077" style="fill: var(--color28, #205077)" d="M9.833 26.228v4.539c-0.698-0.291-1.372-0.632-2.016-1.016v-3.523z"></path>
<path fill="#163c66" style="fill: var(--color29, #163c66)" d="M24.183 26.228v3.523c-0.644 0.384-1.317 0.724-2.016 1.016v-4.539z"></path>
</symbol>
</defs>
</svg>
